<svg xmlns="http://www.w3.org/2000/svg" viewBox="0 0 760 330" width="760" height="330" role="img" aria-label="M4 instructions per frame — RENDER ONLY, 480×270 (plugin QEMU + libinsn, release-mcu opt-level z)" font-size="11">
<style>
  .surface { fill: #fcfcfb; }
  .grid    { stroke: #e1e0d9; stroke-width: 1; }
  .axis    { stroke: #c3c2b7; stroke-width: 1; }
  .t-pri   { fill: #0b0b0b; }
  .t-sec   { fill: #52514e; }
  .t-mut   { fill: #898781; }
  text     { font-family: system-ui, -apple-system, "Segoe UI", sans-serif; }
  .tick    { font-variant-numeric: tabular-nums; }
  @media (prefers-color-scheme: dark) {
    .surface { fill: #1a1a19; }
    .grid    { stroke: #2c2c2a; }
    .axis    { stroke: #383835; }
    .t-pri   { fill: #ffffff; }
    .t-sec   { fill: #c3c2b7; }
    .t-mut   { fill: #898781; }
    .s1 { fill: #3987e5; stroke: #3987e5; }
    .s2 { fill: #d95926; stroke: #d95926; }
    .s3 { fill: #199e70; stroke: #199e70; }
    .s4 { fill: #c98500; stroke: #c98500; }
    .s5 { fill: #d55181; stroke: #d55181; }
    .s6 { fill: #008300; stroke: #008300; }
  }

  .s1 { fill: #2a78d6; stroke: #2a78d6; }
  .s2 { fill: #eb6834; stroke: #eb6834; }
  .s3 { fill: #1baf7a; stroke: #1baf7a; }
  .s4 { fill: #eda100; stroke: #eda100; }
  .s5 { fill: #e87ba4; stroke: #e87ba4; }
  .s6 { fill: #008300; stroke: #008300; }
  .ln { fill: none; }</style>
<rect class="surface" width="760" height="330"/>
<text class="t-pri" x="74" y="22" font-size="13" font-weight="600">M4 instructions per frame — RENDER ONLY, 480×270 (plugin QEMU + libinsn, release-mcu opt-level z)</text>
<line class="grid" x1="74" y1="286.0" x2="588" y2="286.0"/>
<text class="t-mut tick" x="66" y="290.0" text-anchor="end">0</text>
<line class="grid" x1="74" y1="236.4" x2="588" y2="236.4"/>
<text class="t-mut tick" x="66" y="240.4" text-anchor="end">1.41e+07</text>
<line class="grid" x1="74" y1="186.8" x2="588" y2="186.8"/>
<text class="t-mut tick" x="66" y="190.8" text-anchor="end">2.82e+07</text>
<line class="grid" x1="74" y1="137.2" x2="588" y2="137.2"/>
<text class="t-mut tick" x="66" y="141.2" text-anchor="end">4.23e+07</text>
<line class="grid" x1="74" y1="87.6" x2="588" y2="87.6"/>
<text class="t-mut tick" x="66" y="91.6" text-anchor="end">5.64e+07</text>
<line class="grid" x1="74" y1="38.0" x2="588" y2="38.0"/>
<text class="t-mut tick" x="66" y="42.0" text-anchor="end">7.05e+07</text>
<line class="axis" x1="74" y1="286.0" x2="588" y2="286.0"/>
<text class="t-mut tick" x="74.0" y="302" text-anchor="end" transform="rotate(-35 74.0 302)">21427f2</text>
<text class="t-mut tick" x="132.7" y="302" text-anchor="end" transform="rotate(-35 132.7 302)">cab0038</text>
<text class="t-mut tick" x="191.5" y="302" text-anchor="end" transform="rotate(-35 191.5 302)">d6fd574</text>
<text class="t-mut tick" x="250.2" y="302" text-anchor="end" transform="rotate(-35 250.2 302)">dd84be1</text>
<text class="t-mut tick" x="309.0" y="302" text-anchor="end" transform="rotate(-35 309.0 302)">7b5a662</text>
<text class="t-mut tick" x="367.7" y="302" text-anchor="end" transform="rotate(-35 367.7 302)">2469624</text>
<text class="t-mut tick" x="426.5" y="302" text-anchor="end" transform="rotate(-35 426.5 302)">153ae63</text>
<text class="t-mut tick" x="485.2" y="302" text-anchor="end" transform="rotate(-35 485.2 302)">31970f3</text>
<text class="t-mut tick" x="543.9" y="302" text-anchor="end" transform="rotate(-35 543.9 302)">a9c8a4f</text>
<text class="t-sec" x="16" y="162.0" text-anchor="middle" transform="rotate(-90 16 162.0)">insns / frame</text>
<polyline class="s1 ln" points="103.4,75.3 118.1,75.3 132.7,75.4 147.4,75.4 162.1,75.4 176.8,75.4 191.5,75.4 206.2,75.3 220.9,74.8 235.5,74.8 250.2,74.8 279.6,74.8 294.3,71.2 323.7,71.2 338.3,71.2 353.0,71.2 367.7,71.2 382.4,71.2 397.1,71.2 426.5,71.2 441.1,71.2 455.8,70.3 470.5,70.3 485.2,70.3 499.9,116.3 514.6,116.3 529.3,116.3 543.9,116.3 558.6,116.3 573.3,116.3 588.0,116.3" stroke-width="2"/>
<circle class="s1" cx="103.4" cy="75.3" r="4" stroke="none"><title>vyr Exact @ e08aa63: 5.99e+07 insns / frame</title></circle>
<circle class="s1" cx="118.1" cy="75.3" r="4" stroke="none"><title>vyr Exact @ 5da42a2: 5.99e+07 insns / frame</title></circle>
<circle class="s1" cx="132.7" cy="75.4" r="4" stroke="none"><title>vyr Exact @ cab0038: 5.99e+07 insns / frame</title></circle>
<circle class="s1" cx="147.4" cy="75.4" r="4" stroke="none"><title>vyr Exact @ 1306369: 5.99e+07 insns / frame</title></circle>
<circle class="s1" cx="162.1" cy="75.4" r="4" stroke="none"><title>vyr Exact @ e93fa79: 5.99e+07 insns / frame</title></circle>
<circle class="s1" cx="176.8" cy="75.4" r="4" stroke="none"><title>vyr Exact @ 39cb441: 5.99e+07 insns / frame</title></circle>
<circle class="s1" cx="191.5" cy="75.4" r="4" stroke="none"><title>vyr Exact @ d6fd574: 5.99e+07 insns / frame</title></circle>
<circle class="s1" cx="206.2" cy="75.3" r="4" stroke="none"><title>vyr Exact @ 4e06c48: 5.99e+07 insns / frame</title></circle>
<circle class="s1" cx="220.9" cy="74.8" r="4" stroke="none"><title>vyr Exact @ 64ec376: 6.01e+07 insns / frame</title></circle>
<circle class="s1" cx="235.5" cy="74.8" r="4" stroke="none"><title>vyr Exact @ faaf4e6: 6.01e+07 insns / frame</title></circle>
<circle class="s1" cx="250.2" cy="74.8" r="4" stroke="none"><title>vyr Exact @ dd84be1: 6e+07 insns / frame</title></circle>
<circle class="s1" cx="279.6" cy="74.8" r="4" stroke="none"><title>vyr Exact @ f2f0724: 6e+07 insns / frame</title></circle>
<circle class="s1" cx="294.3" cy="71.2" r="4" stroke="none"><title>vyr Exact @ a2f0340: 6.11e+07 insns / frame</title></circle>
<circle class="s1" cx="323.7" cy="71.2" r="4" stroke="none"><title>vyr Exact @ 8da26b3: 6.11e+07 insns / frame</title></circle>
<circle class="s1" cx="338.3" cy="71.2" r="4" stroke="none"><title>vyr Exact @ 7ce2eb9: 6.11e+07 insns / frame</title></circle>
<circle class="s1" cx="353.0" cy="71.2" r="4" stroke="none"><title>vyr Exact @ 5e42dac: 6.11e+07 insns / frame</title></circle>
<circle class="s1" cx="367.7" cy="71.2" r="4" stroke="none"><title>vyr Exact @ 2469624: 6.11e+07 insns / frame</title></circle>
<circle class="s1" cx="382.4" cy="71.2" r="4" stroke="none"><title>vyr Exact @ d52d23a: 6.11e+07 insns / frame</title></circle>
<circle class="s1" cx="397.1" cy="71.2" r="4" stroke="none"><title>vyr Exact @ b609831: 6.11e+07 insns / frame</title></circle>
<circle class="s1" cx="426.5" cy="71.2" r="4" stroke="none"><title>vyr Exact @ 153ae63: 6.11e+07 insns / frame</title></circle>
<circle class="s1" cx="441.1" cy="71.2" r="4" stroke="none"><title>vyr Exact @ 018b366: 6.11e+07 insns / frame</title></circle>
<circle class="s1" cx="455.8" cy="70.3" r="4" stroke="none"><title>vyr Exact @ cb29f52: 6.13e+07 insns / frame</title></circle>
<circle class="s1" cx="470.5" cy="70.3" r="4" stroke="none"><title>vyr Exact @ d4b7c66: 6.13e+07 insns / frame</title></circle>
<circle class="s1" cx="485.2" cy="70.3" r="4" stroke="none"><title>vyr Exact @ 31970f3: 6.13e+07 insns / frame</title></circle>
<circle class="s1" cx="499.9" cy="116.3" r="4" stroke="none"><title>vyr Exact @ f0a101a: 4.82e+07 insns / frame</title></circle>
<circle class="s1" cx="514.6" cy="116.3" r="4" stroke="none"><title>vyr Exact @ d0d8a0f: 4.82e+07 insns / frame</title></circle>
<circle class="s1" cx="529.3" cy="116.3" r="4" stroke="none"><title>vyr Exact @ 4da4133: 4.82e+07 insns / frame</title></circle>
<circle class="s1" cx="543.9" cy="116.3" r="4" stroke="none"><title>vyr Exact @ a9c8a4f: 4.82e+07 insns / frame</title></circle>
<circle class="s1" cx="558.6" cy="116.3" r="4" stroke="none"><title>vyr Exact @ 07d38cc: 4.82e+07 insns / frame</title></circle>
<circle class="s1" cx="573.3" cy="116.3" r="4" stroke="none"><title>vyr Exact @ b93eec1: 4.82e+07 insns / frame</title></circle>
<circle class="s1" cx="588.0" cy="116.3" r="4" stroke="none"><title>vyr Exact @ 5482dad: 4.82e+07 insns / frame</title></circle>
<rect class="s1" x="604" y="40" width="10" height="10" stroke="none"/>
<text class="t-sec" x="620" y="49">vyr Exact</text>
<polyline class="s2 ln" points="455.8,122.5 470.5,122.5 485.2,122.5 499.9,168.1 514.6,168.1 529.3,168.1 543.9,168.1 558.6,168.1 573.3,168.1 588.0,168.1" stroke-width="2"/>
<circle class="s2" cx="455.8" cy="122.5" r="4" stroke="none"><title>vyr Fast @ cb29f52: 4.65e+07 insns / frame</title></circle>
<circle class="s2" cx="470.5" cy="122.5" r="4" stroke="none"><title>vyr Fast @ d4b7c66: 4.65e+07 insns / frame</title></circle>
<circle class="s2" cx="485.2" cy="122.5" r="4" stroke="none"><title>vyr Fast @ 31970f3: 4.65e+07 insns / frame</title></circle>
<circle class="s2" cx="499.9" cy="168.1" r="4" stroke="none"><title>vyr Fast @ f0a101a: 3.35e+07 insns / frame</title></circle>
<circle class="s2" cx="514.6" cy="168.1" r="4" stroke="none"><title>vyr Fast @ d0d8a0f: 3.35e+07 insns / frame</title></circle>
<circle class="s2" cx="529.3" cy="168.1" r="4" stroke="none"><title>vyr Fast @ 4da4133: 3.35e+07 insns / frame</title></circle>
<circle class="s2" cx="543.9" cy="168.1" r="4" stroke="none"><title>vyr Fast @ a9c8a4f: 3.35e+07 insns / frame</title></circle>
<circle class="s2" cx="558.6" cy="168.1" r="4" stroke="none"><title>vyr Fast @ 07d38cc: 3.35e+07 insns / frame</title></circle>
<circle class="s2" cx="573.3" cy="168.1" r="4" stroke="none"><title>vyr Fast @ b93eec1: 3.35e+07 insns / frame</title></circle>
<circle class="s2" cx="588.0" cy="168.1" r="4" stroke="none"><title>vyr Fast @ 5482dad: 3.35e+07 insns / frame</title></circle>
<rect class="s2" x="604" y="57" width="10" height="10" stroke="none"/>
<text class="t-sec" x="620" y="66">vyr Fast</text>
<polyline class="s3 ln" points="118.1,122.7 132.7,122.9 147.4,122.9 162.1,122.8 176.8,235.5 191.5,235.5 206.2,235.5 220.9,257.7 235.5,257.7 250.2,257.7 279.6,257.7 294.3,267.1 323.7,267.1 338.3,267.1 353.0,267.1 367.7,267.1 382.4,267.1 397.1,267.1 426.5,267.1 441.1,267.1 455.8,266.7 470.5,266.7 485.2,266.7 499.9,266.6 514.6,266.6 529.3,266.6 543.9,266.6 558.6,266.6 573.3,266.6 588.0,266.6" stroke-width="2"/>
<circle class="s3" cx="118.1" cy="122.7" r="4" stroke="none"><title>vyr Draft @ 5da42a2: 4.64e+07 insns / frame</title></circle>
<circle class="s3" cx="132.7" cy="122.9" r="4" stroke="none"><title>vyr Draft @ cab0038: 4.64e+07 insns / frame</title></circle>
<circle class="s3" cx="147.4" cy="122.9" r="4" stroke="none"><title>vyr Draft @ 1306369: 4.64e+07 insns / frame</title></circle>
<circle class="s3" cx="162.1" cy="122.8" r="4" stroke="none"><title>vyr Draft @ e93fa79: 4.64e+07 insns / frame</title></circle>
<circle class="s3" cx="176.8" cy="235.5" r="4" stroke="none"><title>vyr Draft @ 39cb441: 1.44e+07 insns / frame</title></circle>
<circle class="s3" cx="191.5" cy="235.5" r="4" stroke="none"><title>vyr Draft @ d6fd574: 1.44e+07 insns / frame</title></circle>
<circle class="s3" cx="206.2" cy="235.5" r="4" stroke="none"><title>vyr Draft @ 4e06c48: 1.44e+07 insns / frame</title></circle>
<circle class="s3" cx="220.9" cy="257.7" r="4" stroke="none"><title>vyr Draft @ 64ec376: 8.05e+06 insns / frame</title></circle>
<circle class="s3" cx="235.5" cy="257.7" r="4" stroke="none"><title>vyr Draft @ faaf4e6: 8.05e+06 insns / frame</title></circle>
<circle class="s3" cx="250.2" cy="257.7" r="4" stroke="none"><title>vyr Draft @ dd84be1: 8.05e+06 insns / frame</title></circle>
<circle class="s3" cx="279.6" cy="257.7" r="4" stroke="none"><title>vyr Draft @ f2f0724: 8.05e+06 insns / frame</title></circle>
<circle class="s3" cx="294.3" cy="267.1" r="4" stroke="none"><title>vyr Draft @ a2f0340: 5.37e+06 insns / frame</title></circle>
<circle class="s3" cx="323.7" cy="267.1" r="4" stroke="none"><title>vyr Draft @ 8da26b3: 5.37e+06 insns / frame</title></circle>
<circle class="s3" cx="338.3" cy="267.1" r="4" stroke="none"><title>vyr Draft @ 7ce2eb9: 5.37e+06 insns / frame</title></circle>
<circle class="s3" cx="353.0" cy="267.1" r="4" stroke="none"><title>vyr Draft @ 5e42dac: 5.37e+06 insns / frame</title></circle>
<circle class="s3" cx="367.7" cy="267.1" r="4" stroke="none"><title>vyr Draft @ 2469624: 5.37e+06 insns / frame</title></circle>
<circle class="s3" cx="382.4" cy="267.1" r="4" stroke="none"><title>vyr Draft @ d52d23a: 5.37e+06 insns / frame</title></circle>
<circle class="s3" cx="397.1" cy="267.1" r="4" stroke="none"><title>vyr Draft @ b609831: 5.37e+06 insns / frame</title></circle>
<circle class="s3" cx="426.5" cy="267.1" r="4" stroke="none"><title>vyr Draft @ 153ae63: 5.37e+06 insns / frame</title></circle>
<circle class="s3" cx="441.1" cy="267.1" r="4" stroke="none"><title>vyr Draft @ 018b366: 5.37e+06 insns / frame</title></circle>
<circle class="s3" cx="455.8" cy="266.7" r="4" stroke="none"><title>vyr Draft @ cb29f52: 5.49e+06 insns / frame</title></circle>
<circle class="s3" cx="470.5" cy="266.7" r="4" stroke="none"><title>vyr Draft @ d4b7c66: 5.49e+06 insns / frame</title></circle>
<circle class="s3" cx="485.2" cy="266.7" r="4" stroke="none"><title>vyr Draft @ 31970f3: 5.49e+06 insns / frame</title></circle>
<circle class="s3" cx="499.9" cy="266.6" r="4" stroke="none"><title>vyr Draft @ f0a101a: 5.51e+06 insns / frame</title></circle>
<circle class="s3" cx="514.6" cy="266.6" r="4" stroke="none"><title>vyr Draft @ d0d8a0f: 5.51e+06 insns / frame</title></circle>
<circle class="s3" cx="529.3" cy="266.6" r="4" stroke="none"><title>vyr Draft @ 4da4133: 5.51e+06 insns / frame</title></circle>
<circle class="s3" cx="543.9" cy="266.6" r="4" stroke="none"><title>vyr Draft @ a9c8a4f: 5.51e+06 insns / frame</title></circle>
<circle class="s3" cx="558.6" cy="266.6" r="4" stroke="none"><title>vyr Draft @ 07d38cc: 5.51e+06 insns / frame</title></circle>
<circle class="s3" cx="573.3" cy="266.6" r="4" stroke="none"><title>vyr Draft @ b93eec1: 5.51e+06 insns / frame</title></circle>
<circle class="s3" cx="588.0" cy="266.6" r="4" stroke="none"><title>vyr Draft @ 5482dad: 5.51e+06 insns / frame</title></circle>
<rect class="s3" x="604" y="74" width="10" height="10" stroke="none"/>
<text class="t-sec" x="620" y="83">vyr Draft</text>
</svg>
